<svg width="20" height="20" viewBox="0 0 20 20" fill="none" xmlns="http://www.w3.org/2000/svg"><path fill-rule="evenodd" clip-rule="evenodd" d="M4.167 2.5h6.666c.92 0 1.667.746 1.667 1.667v.416h-1.25v-.416a.417.417 0 0 0-.417-.417H4.167a.417.417 0 0 0-.417.417V12.5c0 .23.187.417.417.417H6.25v1.25H4.167c-.92 0-1.667-.746-1.667-1.667V4.167c0-.92.746-1.667 1.667-1.667Zm5 4.583a.417.417 0 0 0-.417.417v8.333c0 .23.187.417.417.417h6.666c.23 0 .417-.186.417-.417V7.5a.417.417 0 0 0-.417-.417H9.167Zm6.666-1.25H9.167c-.92 0-1.667.747-1.667 1.667v8.333c0 .92.746 1.667 1.667 1.667h6.666c.92 0 1.667-.746 1.667-1.667V7.5c0-.92-.746-1.667-1.667-1.667Z" fill="currentColor"></path><path d="M12.5 9.167a.625.625 0 0 0-.625.625v1.25h-1.25a.625.625 0 1 0 0 1.25h1.25v1.25a.625.625 0 0 0 1.25 0v-1.25h1.25a.625.625 0 0 0 0-1.25h-1.25v-1.25a.625.625 0 0 0-.625-.625Z" fill="currentColor"></path></svg>