<svg width="24" height="24" viewBox="0 0 24 24" fill="none" xmlns="http://www.w3.org/2000/svg"><path d="M2.969 20.25a.75.75 0 0 1 .75-.75h16.5a.75.75 0 0 1 0 1.5h-16.5a.75.75 0 0 1-.75-.75ZM5.5 11c.465 0 .697 0 .89.038a2 2 0 0 1 1.572 1.572c.038.193.038.425.038.89v2c0 .465 0 .697-.038.89a2 2 0 0 1-1.572 1.572C6.197 18 5.965 18 5.5 18s-.697 0-.89-.038a2 2 0 0 1-1.572-1.572C3 16.197 3 15.965 3 15.5v-2c0-.465 0-.697.038-.89a2 2 0 0 1 1.572-1.572C4.803 11 5.035 11 5.5 11ZM11.984 7c.465 0 .697 0 .89.038a2 2 0 0 1 1.572 1.572c.038.193.038.425.038.89v6c0 .465 0 .697-.038.89a2 2 0 0 1-1.571 1.572c-.194.038-.426.038-.89.038-.465 0-.698 0-.89-.038a2 2 0 0 1-1.572-1.572c-.039-.193-.039-.425-.039-.89v-6c0-.465 0-.697.039-.89a2 2 0 0 1 1.571-1.572C11.287 7 11.52 7 11.984 7ZM18.469 3c.464 0 .697 0 .89.038A2 2 0 0 1 20.93 4.61c.039.193.039.425.039.89v10c0 .465 0 .697-.039.89a2 2 0 0 1-1.571 1.572c-.193.038-.426.038-.89.038-.465 0-.697 0-.89-.038a2 2 0 0 1-1.572-1.572c-.038-.193-.038-.425-.038-.89v-10c0-.465 0-.697.038-.89a2 2 0 0 1 1.572-1.572c.193-.038.425-.038.89-.038Z" fill="currentColor"></path></svg>